<mxfile host="app.diagrams.net" agent="Mozilla/5.0 (Windows NT 10.0; Win64; x64) AppleWebKit/537.36 (KHTML, like Gecko) Chrome/134.0.0.0 Safari/537.36 Edg/134.0.0.0" version="26.1.0">
  <diagram id="a45cf8ec-cd66-6f27-3ac3-be6e809c9e4a" name="Page-1">
    <mxGraphModel dx="1960" dy="928" grid="1" gridSize="10" guides="1" tooltips="1" connect="1" arrows="1" fold="1" page="1" pageScale="1" pageWidth="827" pageHeight="1169" background="none" math="0" shadow="0">
      <root>
        <mxCell id="0" />
        <mxCell id="1" parent="0" />
        <mxCell id="3" value="" style="rounded=1;whiteSpace=wrap;html=1;shadow=0;strokeColor=none;fillColor=#BAC8D3;gradientColor=none;fontSize=18;fontColor=#F08705;opacity=40;fontStyle=0;strokeWidth=3;" parent="1" vertex="1">
          <mxGeometry x="30" width="1400" height="610" as="geometry" />
        </mxCell>
        <mxCell id="4" value="10.10.90.0/24&amp;nbsp; &amp;nbsp; 研发" style="rounded=1;whiteSpace=wrap;html=1;shadow=0;strokeColor=none;fillColor=#BAC8D3;gradientColor=none;fontSize=18;fontColor=#AE4132;verticalAlign=top;opacity=70;fontStyle=0;strokeWidth=3;" parent="1" vertex="1">
          <mxGeometry x="100" y="70" width="573" height="200" as="geometry" />
        </mxCell>
        <mxCell id="5" value="&lt;span style=&quot;line-height: 17.1818180084229px&quot;&gt;10.10.40.0/24 测试组&lt;/span&gt;" style="rounded=1;whiteSpace=wrap;html=1;shadow=0;strokeColor=none;fillColor=#BAC8D3;gradientColor=none;fontSize=18;fontColor=#AE4132;verticalAlign=top;fontStyle=0;opacity=70;strokeWidth=3;" parent="1" vertex="1">
          <mxGeometry x="98" y="350" width="572" height="220" as="geometry" />
        </mxCell>
        <mxCell id="10" value="&lt;span style=&quot;line-height: 17.1818180084229px&quot;&gt;192.168.30.0/24 研发&lt;/span&gt;" style="rounded=1;whiteSpace=wrap;html=1;shadow=0;strokeColor=none;fillColor=#BAC8D3;gradientColor=none;fontSize=18;fontColor=#AE4132;verticalAlign=top;opacity=70;fontStyle=0;strokeWidth=3;" parent="1" vertex="1">
          <mxGeometry x="900" y="70" width="510" height="210" as="geometry" />
        </mxCell>
        <mxCell id="14" value="Local1 172.16.3.0/24" style="rounded=1;whiteSpace=wrap;html=1;shadow=0;strokeColor=none;fillColor=#BAC8D3;gradientColor=none;fontSize=18;fontColor=#AE4132;fontStyle=0;verticalAlign=bottom;opacity=40;strokeWidth=3;" parent="1" vertex="1">
          <mxGeometry x="428" y="769" width="408" height="384" as="geometry" />
        </mxCell>
        <mxCell id="19" value="Internet" style="ellipse;shape=cloud;whiteSpace=wrap;html=1;shadow=0;strokeColor=#23445D;fillColor=#BAC8D3;gradientColor=none;fontSize=18;fontColor=#23445D;gradientDirection=north;fontStyle=0;strokeWidth=2;" parent="1" vertex="1">
          <mxGeometry x="955" y="640" width="120" height="80" as="geometry" />
        </mxCell>
        <mxCell id="20" value="" style="strokeWidth=2;strokeColor=#666666;dashed=0;align=center;html=1;fontSize=8;shape=mxgraph.eip.messageChannel;shadow=0;fillColor=#FFFFFF;gradientColor=none;fontColor=#F08705;fontStyle=0" parent="1" vertex="1">
          <mxGeometry x="160" y="206" width="440" height="20" as="geometry" />
        </mxCell>
        <mxCell id="21" value="" style="edgeStyle=elbowEdgeStyle;strokeWidth=2;rounded=0;endArrow=none;startArrow=none;startSize=10;endSize=10;dashed=0;html=1;strokeColor=#23445D;fontSize=18;fontColor=#F08705;startFill=0;endFill=0;fontStyle=0;entryX=0;entryY=1;entryDx=310;entryDy=0;entryPerimeter=0;elbow=vertical;" parent="1" edge="1">
          <mxGeometry relative="1" as="geometry">
            <mxPoint x="463.58823529411757" y="175" as="sourcePoint" />
            <mxPoint x="463" y="211" as="targetPoint" />
          </mxGeometry>
        </mxCell>
        <mxCell id="24" value="90.100" style="image;html=1;image=img/lib/clip_art/computers/Netbook_128x128.png;shadow=0;strokeColor=#000000;fillColor=#FFFFFF;gradientColor=none;fontSize=18;fontColor=#F08705;fontStyle=0" parent="1" vertex="1">
          <mxGeometry x="428" y="110" width="80" height="80" as="geometry" />
        </mxCell>
        <mxCell id="27" value="90.3&lt;div&gt;30.3&lt;/div&gt;" style="image;html=1;image=img/lib/clip_art/computers/Netbook_128x128.png;shadow=0;strokeColor=#000000;fillColor=#FFFFFF;gradientColor=none;fontSize=18;fontColor=#F08705;fontStyle=0" parent="1" vertex="1">
          <mxGeometry x="740" y="76.55" width="80" height="80" as="geometry" />
        </mxCell>
        <mxCell id="31" value="" style="image;html=1;image=img/lib/clip_art/computers/Netbook_128x128.png;shadow=0;strokeColor=#000000;fillColor=#FFFFFF;gradientColor=none;fontSize=18;fontColor=#F08705;fontStyle=0" parent="1" vertex="1">
          <mxGeometry x="493" y="364.45" width="80" height="80" as="geometry" />
        </mxCell>
        <mxCell id="46" value="" style="strokeWidth=2;strokeColor=#666666;dashed=0;align=center;html=1;fontSize=8;shape=mxgraph.eip.messageChannel;shadow=0;fillColor=#FFFFFF;gradientColor=none;fontColor=#F08705;fontStyle=0" parent="1" vertex="1">
          <mxGeometry x="112" y="487" width="488" height="20" as="geometry" />
        </mxCell>
        <mxCell id="47" value="" style="strokeWidth=2;strokeColor=#666666;dashed=0;align=center;html=1;fontSize=8;shape=mxgraph.eip.messageChannel;shadow=0;fillColor=#FFFFFF;gradientColor=none;fontColor=#F08705;fontStyle=0" parent="1" vertex="1">
          <mxGeometry x="930" y="226" width="412" height="20" as="geometry" />
        </mxCell>
        <mxCell id="66" value="" style="strokeWidth=2;strokeColor=#666666;dashed=0;align=center;html=1;fontSize=8;shape=mxgraph.eip.messageChannel;shadow=0;fillColor=#FFFFFF;gradientColor=none;fontColor=#F08705;fontStyle=0" parent="1" vertex="1">
          <mxGeometry x="445.5" y="964" width="385" height="20" as="geometry" />
        </mxCell>
        <mxCell id="75" value="172.17.1.1" style="image;html=1;image=img/lib/clip_art/networking/Wireless_Router_128x128.png;shadow=0;strokeColor=#000000;fillColor=#FFFFFF;gradientColor=none;fontSize=18;fontColor=#F08705;fontStyle=0" parent="1" vertex="1">
          <mxGeometry x="856" y="1012.5" width="80" height="80" as="geometry" />
        </mxCell>
        <mxCell id="82" value="" style="image;html=1;image=img/lib/clip_art/networking/Firewall_128x128.png;shadow=0;strokeColor=#000000;fillColor=#FFFFFF;gradientColor=none;fontSize=18;fontColor=#F08705;fontStyle=0" parent="1" vertex="1">
          <mxGeometry x="920" y="457" width="80" height="80" as="geometry" />
        </mxCell>
        <mxCell id="92" value="" style="edgeStyle=elbowEdgeStyle;strokeWidth=2;rounded=0;endArrow=none;startArrow=none;startSize=10;endSize=10;dashed=0;html=1;strokeColor=#23445D;fontSize=18;fontColor=#F08705;startFill=0;endFill=0;fontStyle=0" parent="1" source="31" target="46" edge="1">
          <mxGeometry relative="1" as="geometry">
            <mxPoint x="560" y="197" as="sourcePoint" />
            <mxPoint x="560" y="250" as="targetPoint" />
          </mxGeometry>
        </mxCell>
        <mxCell id="103" value="" style="edgeStyle=elbowEdgeStyle;strokeWidth=2;rounded=0;endArrow=none;startArrow=none;startSize=10;endSize=10;dashed=0;html=1;strokeColor=#23445D;fontSize=18;fontColor=#F08705;startFill=0;endFill=0;fontStyle=0" parent="1" source="82" target="162" edge="1">
          <mxGeometry relative="1" as="geometry">
            <mxPoint x="775" y="604" as="sourcePoint" />
            <mxPoint x="1044.7058823529414" y="614" as="targetPoint" />
          </mxGeometry>
        </mxCell>
        <mxCell id="110" style="edgeStyle=none;rounded=0;html=1;startArrow=none;startFill=0;endArrow=none;endFill=0;fontSize=18;fontColor=#F08705;strokeColor=#23445D;strokeWidth=2;fontStyle=0;entryX=0.625;entryY=0.2;entryDx=0;entryDy=0;entryPerimeter=0;" parent="1" source="82" target="19" edge="1">
          <mxGeometry relative="1" as="geometry" />
        </mxCell>
        <mxCell id="117" style="edgeStyle=orthogonalEdgeStyle;rounded=0;html=1;startArrow=none;startFill=0;endArrow=none;endFill=0;fontSize=18;fontColor=#F08705;strokeColor=#23445D;strokeWidth=2;curved=1;fontStyle=0;entryX=0;entryY=0;entryDx=430;entryDy=0;entryPerimeter=0;" parent="1" source="NuSbpTB-OPI-FNcF1d1R-185" target="20" edge="1">
          <mxGeometry relative="1" as="geometry">
            <Array as="points">
              <mxPoint x="797" y="216" />
              <mxPoint x="590" y="216" />
            </Array>
          </mxGeometry>
        </mxCell>
        <mxCell id="118" style="edgeStyle=orthogonalEdgeStyle;rounded=0;html=1;startArrow=none;startFill=0;endArrow=none;endFill=0;fontSize=18;fontColor=#F08705;strokeColor=#23445D;strokeWidth=2;curved=1;fontStyle=0;entryX=0;entryY=0;entryDx=470;entryDy=0;entryPerimeter=0;" parent="1" source="NuSbpTB-OPI-FNcF1d1R-185" target="46" edge="1">
          <mxGeometry relative="1" as="geometry">
            <Array as="points">
              <mxPoint x="797" y="280" />
              <mxPoint x="680" y="280" />
              <mxPoint x="680" y="320" />
              <mxPoint x="650" y="320" />
              <mxPoint x="650" y="487" />
            </Array>
            <mxPoint x="552" y="530.94" as="sourcePoint" />
            <mxPoint x="282" y="489.9988235294117" as="targetPoint" />
          </mxGeometry>
        </mxCell>
        <mxCell id="119" style="edgeStyle=orthogonalEdgeStyle;rounded=0;html=1;startArrow=none;startFill=0;endArrow=none;endFill=0;fontSize=18;fontColor=#F08705;strokeColor=#23445D;strokeWidth=2;curved=1;fontStyle=0;exitX=0;exitY=0.5;exitDx=2.7;exitDy=0;exitPerimeter=0;" parent="1" source="47" target="NuSbpTB-OPI-FNcF1d1R-185" edge="1">
          <mxGeometry relative="1" as="geometry">
            <Array as="points">
              <mxPoint x="900" y="236" />
              <mxPoint x="900" y="230" />
              <mxPoint x="797" y="230" />
            </Array>
            <mxPoint x="598" y="480" as="sourcePoint" />
            <mxPoint x="328" y="533.0588235294119" as="targetPoint" />
          </mxGeometry>
        </mxCell>
        <mxCell id="147" value="" style="edgeStyle=elbowEdgeStyle;strokeWidth=2;rounded=0;endArrow=none;startArrow=none;startSize=10;endSize=10;dashed=0;html=1;strokeColor=#23445D;fontSize=18;fontColor=#F08705;startFill=0;endFill=0;fontStyle=0" parent="1" target="66" edge="1">
          <mxGeometry relative="1" as="geometry">
            <mxPoint x="502.47058823529414" y="893" as="sourcePoint" />
            <mxPoint x="817.6280991735537" y="1001.9504132231405" as="targetPoint" />
          </mxGeometry>
        </mxCell>
        <mxCell id="148" value="" style="edgeStyle=elbowEdgeStyle;strokeWidth=2;rounded=0;endArrow=none;startArrow=none;startSize=10;endSize=10;dashed=0;html=1;strokeColor=#23445D;fontSize=18;fontColor=#F08705;startFill=0;endFill=0;fontStyle=0" parent="1" target="66" edge="1">
          <mxGeometry relative="1" as="geometry">
            <mxPoint x="609.5294117647059" y="893" as="sourcePoint" />
            <mxPoint x="827.6280991735537" y="1011.9504132231405" as="targetPoint" />
          </mxGeometry>
        </mxCell>
        <mxCell id="149" value="" style="edgeStyle=elbowEdgeStyle;strokeWidth=2;rounded=0;endArrow=none;startArrow=none;startSize=10;endSize=10;dashed=0;html=1;strokeColor=#23445D;fontSize=18;fontColor=#F08705;startFill=0;endFill=0;fontStyle=0" parent="1" target="66" edge="1">
          <mxGeometry relative="1" as="geometry">
            <mxPoint x="729.5294117647059" y="893" as="sourcePoint" />
            <mxPoint x="837.6280991735537" y="1021.9504132231405" as="targetPoint" />
          </mxGeometry>
        </mxCell>
        <mxCell id="151" value="" style="edgeStyle=elbowEdgeStyle;strokeWidth=2;rounded=0;endArrow=none;startArrow=none;startSize=10;endSize=10;dashed=0;html=1;strokeColor=#23445D;fontSize=18;fontColor=#F08705;startFill=0;endFill=0;fontStyle=0" parent="1" source="NuSbpTB-OPI-FNcF1d1R-175" target="20" edge="1">
          <mxGeometry relative="1" as="geometry">
            <mxPoint x="296.47058823529414" y="180" as="sourcePoint" />
            <mxPoint x="550.5797101449277" y="240.30434782608688" as="targetPoint" />
          </mxGeometry>
        </mxCell>
        <mxCell id="152" value="" style="edgeStyle=elbowEdgeStyle;strokeWidth=2;rounded=0;endArrow=none;startArrow=none;startSize=10;endSize=10;dashed=0;html=1;strokeColor=#23445D;fontSize=18;fontColor=#F08705;startFill=0;endFill=0;fontStyle=0" parent="1" source="NuSbpTB-OPI-FNcF1d1R-176" target="46" edge="1">
          <mxGeometry relative="1" as="geometry">
            <mxPoint x="160" y="419" as="sourcePoint" />
            <mxPoint x="560.5797101449277" y="250.30434782608688" as="targetPoint" />
          </mxGeometry>
        </mxCell>
        <mxCell id="161" style="edgeStyle=orthogonalEdgeStyle;rounded=0;jumpStyle=none;html=1;exitX=0.5;exitY=1;entryX=1;entryY=0.5;shadow=0;labelBackgroundColor=#ffffff;startArrow=none;startFill=0;endArrow=none;endFill=0;endSize=10;jettySize=auto;orthogonalLoop=1;strokeColor=#2F5B7C;strokeWidth=2;fillColor=#F08705;fontFamily=Helvetica;fontSize=14;fontColor=#F08705;align=left;curved=1;" parent="1" source="162" target="46" edge="1">
          <mxGeometry relative="1" as="geometry" />
        </mxCell>
        <mxCell id="162" value="10.10.0.0/16" style="image;html=1;image=img/lib/clip_art/networking/Concentrator_128x128.png;shadow=0;strokeColor=#000000;fillColor=#F2F2F2;gradientColor=none;fontSize=18;fontColor=#F08705;fontStyle=0" parent="1" vertex="1">
          <mxGeometry x="757" y="457" width="80" height="80" as="geometry" />
        </mxCell>
        <mxCell id="165" style="edgeStyle=orthogonalEdgeStyle;rounded=0;html=1;entryX=0;entryY=1;startArrow=none;startFill=0;endArrow=none;endFill=0;fontSize=18;fontColor=#F08705;strokeColor=#23445D;strokeWidth=2;curved=1;fontStyle=0;entryDx=200;entryDy=0;entryPerimeter=0;" parent="1" source="NuSbpTB-OPI-FNcF1d1R-182" target="47" edge="1">
          <mxGeometry relative="1" as="geometry">
            <Array as="points">
              <mxPoint x="1130" y="440" />
              <mxPoint x="1130" y="440" />
            </Array>
          </mxGeometry>
        </mxCell>
        <mxCell id="168" value="ENTERPRISE NETWORK" style="text;html=1;strokeColor=none;fillColor=none;align=center;verticalAlign=middle;whiteSpace=wrap;overflow=hidden;shadow=0;fontSize=36;fontColor=#AE4132;fontStyle=0" parent="1" vertex="1">
          <mxGeometry x="137" y="15" width="1380" height="45" as="geometry" />
        </mxCell>
        <mxCell id="171" style="edgeStyle=orthogonalEdgeStyle;rounded=0;jumpStyle=none;html=1;exitX=0;exitY=0.5;entryX=0;entryY=0.5;shadow=0;labelBackgroundColor=none;startArrow=none;startFill=0;endArrow=classic;endFill=1;endSize=6;jettySize=auto;orthogonalLoop=1;strokeColor=#23445D;strokeWidth=2;fillColor=#F08705;fontFamily=Helvetica;fontSize=14;fontColor=#F08705;align=left;fontStyle=0" parent="1" source="168" target="168" edge="1">
          <mxGeometry relative="1" as="geometry" />
        </mxCell>
        <mxCell id="172" style="edgeStyle=orthogonalEdgeStyle;rounded=0;jumpStyle=none;html=1;exitX=0.75;exitY=0;entryX=0.75;entryY=0;shadow=0;labelBackgroundColor=none;startArrow=none;startFill=0;endArrow=classic;endFill=1;endSize=6;jettySize=auto;orthogonalLoop=1;strokeColor=#23445D;strokeWidth=2;fillColor=#F08705;fontFamily=Helvetica;fontSize=14;fontColor=#FFFFFF;align=left;fontStyle=0" parent="1" source="27" target="27" edge="1">
          <mxGeometry relative="1" as="geometry" />
        </mxCell>
        <mxCell id="NuSbpTB-OPI-FNcF1d1R-174" style="edgeStyle=orthogonalEdgeStyle;rounded=0;jumpStyle=none;html=1;shadow=0;labelBackgroundColor=#ffffff;startArrow=none;startFill=0;endArrow=none;endFill=0;endSize=10;jettySize=auto;orthogonalLoop=1;strokeColor=#2F5B7C;strokeWidth=2;fillColor=#F08705;fontFamily=Helvetica;fontSize=14;fontColor=#F08705;align=left;curved=1;" edge="1" parent="1" source="162" target="20">
          <mxGeometry relative="1" as="geometry">
            <mxPoint x="730" y="278" as="sourcePoint" />
            <mxPoint x="587.2400000000002" y="217.24" as="targetPoint" />
            <Array as="points">
              <mxPoint x="730" y="218" />
            </Array>
          </mxGeometry>
        </mxCell>
        <mxCell id="NuSbpTB-OPI-FNcF1d1R-175" value="5500PN&lt;div&gt;10.10.90.57&lt;/div&gt;" style="verticalLabelPosition=bottom;sketch=0;aspect=fixed;html=1;verticalAlign=top;strokeColor=none;align=center;outlineConnect=0;shape=mxgraph.citrix.1u_2u_server;" vertex="1" parent="1">
          <mxGeometry x="243" y="120" width="100" height="39.1" as="geometry" />
        </mxCell>
        <mxCell id="NuSbpTB-OPI-FNcF1d1R-176" value="DCP3000&lt;div&gt;10.10.40.159&lt;/div&gt;" style="verticalLabelPosition=bottom;sketch=0;aspect=fixed;html=1;verticalAlign=top;strokeColor=none;align=center;outlineConnect=0;shape=mxgraph.citrix.1u_2u_server;" vertex="1" parent="1">
          <mxGeometry x="117" y="385.45" width="100" height="39.1" as="geometry" />
        </mxCell>
        <mxCell id="NuSbpTB-OPI-FNcF1d1R-177" value="DCP3000&lt;div&gt;10.10.40.160&lt;/div&gt;&lt;div&gt;&lt;br&gt;&lt;/div&gt;" style="verticalLabelPosition=bottom;sketch=0;aspect=fixed;html=1;verticalAlign=top;strokeColor=none;align=center;outlineConnect=0;shape=mxgraph.citrix.1u_2u_server;" vertex="1" parent="1">
          <mxGeometry x="238" y="384.9" width="100" height="39.1" as="geometry" />
        </mxCell>
        <mxCell id="NuSbpTB-OPI-FNcF1d1R-178" value="" style="edgeStyle=elbowEdgeStyle;strokeWidth=2;rounded=0;endArrow=none;startArrow=none;startSize=10;endSize=10;dashed=0;html=1;strokeColor=#23445D;fontSize=18;fontColor=#F08705;startFill=0;endFill=0;fontStyle=0" edge="1" parent="1" source="NuSbpTB-OPI-FNcF1d1R-177" target="46">
          <mxGeometry relative="1" as="geometry">
            <mxPoint x="177" y="409" as="sourcePoint" />
            <mxPoint x="177" y="460" as="targetPoint" />
          </mxGeometry>
        </mxCell>
        <mxCell id="NuSbpTB-OPI-FNcF1d1R-179" value="DCP3000&lt;div&gt;10.10.40.32&lt;/div&gt;" style="verticalLabelPosition=bottom;sketch=0;aspect=fixed;html=1;verticalAlign=top;strokeColor=none;align=center;outlineConnect=0;shape=mxgraph.citrix.1u_2u_server;" vertex="1" parent="1">
          <mxGeometry x="364" y="389" width="100" height="39.1" as="geometry" />
        </mxCell>
        <mxCell id="NuSbpTB-OPI-FNcF1d1R-180" value="" style="edgeStyle=elbowEdgeStyle;strokeWidth=2;rounded=0;endArrow=none;startArrow=none;startSize=10;endSize=10;dashed=0;html=1;strokeColor=#23445D;fontSize=18;fontColor=#F08705;startFill=0;endFill=0;fontStyle=0;entryX=0;entryY=0;entryDx=300;entryDy=0;entryPerimeter=0;elbow=horizontal;" edge="1" parent="1" target="46">
          <mxGeometry relative="1" as="geometry">
            <mxPoint x="418.3529411764707" y="369.0999999999999" as="sourcePoint" />
            <mxPoint x="418" y="407" as="targetPoint" />
          </mxGeometry>
        </mxCell>
        <mxCell id="NuSbpTB-OPI-FNcF1d1R-182" value="192.168.30.1" style="image;html=1;image=img/lib/clip_art/networking/Firewall_128x128.png;shadow=0;strokeColor=#000000;fillColor=#FFFFFF;gradientColor=none;fontSize=18;fontColor=#F08705;fontStyle=0" vertex="1" parent="1">
          <mxGeometry x="1081" y="377" width="80" height="80" as="geometry" />
        </mxCell>
        <mxCell id="NuSbpTB-OPI-FNcF1d1R-183" style="edgeStyle=none;rounded=0;html=1;startArrow=none;startFill=0;endArrow=none;endFill=0;fontSize=18;fontColor=#F08705;strokeColor=#23445D;strokeWidth=2;fontStyle=0;entryX=0.625;entryY=0.2;entryDx=0;entryDy=0;entryPerimeter=0;" edge="1" parent="1" source="NuSbpTB-OPI-FNcF1d1R-182" target="19">
          <mxGeometry relative="1" as="geometry">
            <mxPoint x="847" y="634" as="sourcePoint" />
            <mxPoint x="1003" y="768" as="targetPoint" />
          </mxGeometry>
        </mxCell>
        <mxCell id="NuSbpTB-OPI-FNcF1d1R-185" value="Umbogo&amp;nbsp;&lt;div&gt;10.10.90.222&lt;/div&gt;&lt;div&gt;10.10.40.222&lt;/div&gt;&lt;div&gt;192.168.30.222&lt;/div&gt;" style="verticalLabelPosition=bottom;sketch=0;aspect=fixed;html=1;verticalAlign=top;strokeColor=none;align=center;outlineConnect=0;shape=mxgraph.citrix.branch_repeater;" vertex="1" parent="1">
          <mxGeometry x="785" y="311" width="100" height="39" as="geometry" />
        </mxCell>
        <mxCell id="NuSbpTB-OPI-FNcF1d1R-189" value="DCP3800D&lt;br&gt;&lt;div&gt;192.168.30.60&lt;/div&gt;" style="verticalLabelPosition=bottom;sketch=0;aspect=fixed;html=1;verticalAlign=top;strokeColor=none;align=center;outlineConnect=0;shape=mxgraph.citrix.1u_2u_server;" vertex="1" parent="1">
          <mxGeometry x="1020" y="117.45" width="100" height="39.1" as="geometry" />
        </mxCell>
        <mxCell id="NuSbpTB-OPI-FNcF1d1R-191" value="" style="edgeStyle=elbowEdgeStyle;strokeWidth=2;rounded=0;endArrow=none;startArrow=none;startSize=10;endSize=10;dashed=0;html=1;strokeColor=#23445D;fontSize=18;fontColor=#F08705;startFill=0;endFill=0;fontStyle=0;" edge="1" parent="1" source="NuSbpTB-OPI-FNcF1d1R-189" target="47">
          <mxGeometry relative="1" as="geometry">
            <mxPoint x="970" y="187" as="sourcePoint" />
            <mxPoint x="970" y="236" as="targetPoint" />
            <Array as="points">
              <mxPoint x="1060" y="190" />
            </Array>
          </mxGeometry>
        </mxCell>
        <mxCell id="NuSbpTB-OPI-FNcF1d1R-192" style="edgeStyle=orthogonalEdgeStyle;rounded=0;html=1;startArrow=none;startFill=0;endArrow=none;endFill=0;fontSize=18;fontColor=#F08705;strokeColor=#23445D;strokeWidth=2;curved=1;fontStyle=0;exitX=0;exitY=0;exitDx=430;exitDy=0;exitPerimeter=0;" edge="1" parent="1" source="20" target="27">
          <mxGeometry relative="1" as="geometry">
            <Array as="points">
              <mxPoint x="600" y="206" />
              <mxPoint x="600" y="110" />
            </Array>
            <mxPoint x="140" y="849" as="sourcePoint" />
            <mxPoint x="410" y="690" as="targetPoint" />
          </mxGeometry>
        </mxCell>
        <mxCell id="NuSbpTB-OPI-FNcF1d1R-194" value="30.100" style="image;html=1;image=img/lib/clip_art/computers/Netbook_128x128.png;shadow=0;strokeColor=#000000;fillColor=#FFFFFF;gradientColor=none;fontSize=18;fontColor=#F08705;fontStyle=0" vertex="1" parent="1">
          <mxGeometry x="1222" y="99.55" width="80" height="80" as="geometry" />
        </mxCell>
        <mxCell id="NuSbpTB-OPI-FNcF1d1R-196" value="" style="edgeStyle=elbowEdgeStyle;strokeWidth=2;rounded=0;endArrow=none;startArrow=none;startSize=10;endSize=10;dashed=0;html=1;strokeColor=#23445D;fontSize=18;fontColor=#F08705;startFill=0;endFill=0;fontStyle=0;" edge="1" parent="1" source="NuSbpTB-OPI-FNcF1d1R-194" target="47">
          <mxGeometry relative="1" as="geometry">
            <mxPoint x="1070" y="167" as="sourcePoint" />
            <mxPoint x="1070" y="236" as="targetPoint" />
            <Array as="points">
              <mxPoint x="1230" y="170" />
            </Array>
          </mxGeometry>
        </mxCell>
        <mxCell id="NuSbpTB-OPI-FNcF1d1R-197" style="edgeStyle=orthogonalEdgeStyle;rounded=0;html=1;startArrow=none;startFill=0;endArrow=none;endFill=0;fontSize=18;fontColor=#F08705;strokeColor=#23445D;strokeWidth=2;curved=1;fontStyle=0;exitX=0;exitY=0.5;exitDx=2.7;exitDy=0;exitPerimeter=0;entryX=1;entryY=0.5;entryDx=0;entryDy=0;" edge="1" parent="1" source="47" target="27">
          <mxGeometry relative="1" as="geometry">
            <Array as="points">
              <mxPoint x="920" y="236" />
              <mxPoint x="920" y="170" />
              <mxPoint x="900" y="170" />
              <mxPoint x="900" y="117" />
            </Array>
            <mxPoint x="600" y="216" as="sourcePoint" />
            <mxPoint x="780" y="120" as="targetPoint" />
          </mxGeometry>
        </mxCell>
        <mxCell id="NuSbpTB-OPI-FNcF1d1R-198" value="172.16.3.15" style="verticalLabelPosition=bottom;sketch=0;aspect=fixed;html=1;verticalAlign=top;strokeColor=none;align=center;outlineConnect=0;shape=mxgraph.citrix.1u_2u_server;" vertex="1" parent="1">
          <mxGeometry x="456" y="853" width="100" height="39.1" as="geometry" />
        </mxCell>
        <mxCell id="NuSbpTB-OPI-FNcF1d1R-199" value="172.16.3.16" style="verticalLabelPosition=bottom;sketch=0;aspect=fixed;html=1;verticalAlign=top;strokeColor=none;align=center;outlineConnect=0;shape=mxgraph.citrix.1u_2u_server;" vertex="1" parent="1">
          <mxGeometry x="566" y="853" width="100" height="39.1" as="geometry" />
        </mxCell>
        <mxCell id="NuSbpTB-OPI-FNcF1d1R-200" value="172.16.3.17" style="verticalLabelPosition=bottom;sketch=0;aspect=fixed;html=1;verticalAlign=top;strokeColor=none;align=center;outlineConnect=0;shape=mxgraph.citrix.1u_2u_server;" vertex="1" parent="1">
          <mxGeometry x="676" y="853" width="100" height="39.1" as="geometry" />
        </mxCell>
        <mxCell id="NuSbpTB-OPI-FNcF1d1R-201" value="Umbogo&amp;nbsp;&lt;div&gt;172.17.1.222&lt;/div&gt;&lt;div&gt;172.16.3.222&lt;/div&gt;&lt;div&gt;&lt;br&gt;&lt;/div&gt;" style="verticalLabelPosition=bottom;sketch=0;aspect=fixed;html=1;verticalAlign=top;strokeColor=none;align=center;outlineConnect=0;shape=mxgraph.citrix.branch_repeater;" vertex="1" parent="1">
          <mxGeometry x="588" y="1033" width="100" height="39" as="geometry" />
        </mxCell>
        <mxCell id="NuSbpTB-OPI-FNcF1d1R-202" value="" style="edgeStyle=elbowEdgeStyle;strokeWidth=2;rounded=0;endArrow=none;startArrow=none;startSize=10;endSize=10;dashed=0;html=1;strokeColor=#23445D;fontSize=18;fontColor=#F08705;startFill=0;endFill=0;fontStyle=0;exitX=0;exitY=1;exitDx=190;exitDy=0;exitPerimeter=0;" edge="1" parent="1" source="66" target="NuSbpTB-OPI-FNcF1d1R-201">
          <mxGeometry relative="1" as="geometry">
            <mxPoint x="739.5294117647059" y="903" as="sourcePoint" />
            <mxPoint x="740" y="974" as="targetPoint" />
          </mxGeometry>
        </mxCell>
        <mxCell id="NuSbpTB-OPI-FNcF1d1R-203" value="" style="edgeStyle=elbowEdgeStyle;strokeWidth=2;rounded=0;endArrow=none;startArrow=none;startSize=10;endSize=10;dashed=0;html=1;strokeColor=#23445D;fontSize=18;fontColor=#F08705;startFill=0;endFill=0;fontStyle=0;" edge="1" parent="1" source="NuSbpTB-OPI-FNcF1d1R-201" target="75">
          <mxGeometry relative="1" as="geometry">
            <mxPoint x="646" y="994" as="sourcePoint" />
            <mxPoint x="645" y="1043" as="targetPoint" />
          </mxGeometry>
        </mxCell>
        <mxCell id="NuSbpTB-OPI-FNcF1d1R-204" value="Local2 172.16.3.0/24" style="rounded=1;whiteSpace=wrap;html=1;shadow=0;strokeColor=none;fillColor=#BAC8D3;gradientColor=none;fontSize=18;fontColor=#AE4132;fontStyle=0;verticalAlign=bottom;opacity=40;strokeWidth=3;" vertex="1" parent="1">
          <mxGeometry x="1060" y="769" width="408" height="384" as="geometry" />
        </mxCell>
        <mxCell id="NuSbpTB-OPI-FNcF1d1R-205" value="" style="strokeWidth=2;strokeColor=#666666;dashed=0;align=center;html=1;fontSize=8;shape=mxgraph.eip.messageChannel;shadow=0;fillColor=#FFFFFF;gradientColor=none;fontColor=#F08705;fontStyle=0" vertex="1" parent="1">
          <mxGeometry x="1077.5" y="964" width="385" height="20" as="geometry" />
        </mxCell>
        <mxCell id="NuSbpTB-OPI-FNcF1d1R-206" value="8.15.8.1" style="image;html=1;image=img/lib/clip_art/networking/Wireless_Router_128x128.png;shadow=0;strokeColor=#000000;fillColor=#FFFFFF;gradientColor=none;fontSize=18;fontColor=#F08705;fontStyle=0" vertex="1" parent="1">
          <mxGeometry x="960" y="1012.5" width="80" height="80" as="geometry" />
        </mxCell>
        <mxCell id="NuSbpTB-OPI-FNcF1d1R-207" value="" style="edgeStyle=elbowEdgeStyle;strokeWidth=2;rounded=0;endArrow=none;startArrow=none;startSize=10;endSize=10;dashed=0;html=1;strokeColor=#23445D;fontSize=18;fontColor=#F08705;startFill=0;endFill=0;fontStyle=0" edge="1" parent="1" target="NuSbpTB-OPI-FNcF1d1R-205">
          <mxGeometry relative="1" as="geometry">
            <mxPoint x="1134.4705882352941" y="893" as="sourcePoint" />
            <mxPoint x="1449.6280991735537" y="1001.9504132231405" as="targetPoint" />
          </mxGeometry>
        </mxCell>
        <mxCell id="NuSbpTB-OPI-FNcF1d1R-208" value="" style="edgeStyle=elbowEdgeStyle;strokeWidth=2;rounded=0;endArrow=none;startArrow=none;startSize=10;endSize=10;dashed=0;html=1;strokeColor=#23445D;fontSize=18;fontColor=#F08705;startFill=0;endFill=0;fontStyle=0" edge="1" parent="1" target="NuSbpTB-OPI-FNcF1d1R-205">
          <mxGeometry relative="1" as="geometry">
            <mxPoint x="1241.5294117647059" y="893" as="sourcePoint" />
            <mxPoint x="1459.6280991735537" y="1011.9504132231405" as="targetPoint" />
          </mxGeometry>
        </mxCell>
        <mxCell id="NuSbpTB-OPI-FNcF1d1R-209" value="" style="edgeStyle=elbowEdgeStyle;strokeWidth=2;rounded=0;endArrow=none;startArrow=none;startSize=10;endSize=10;dashed=0;html=1;strokeColor=#23445D;fontSize=18;fontColor=#F08705;startFill=0;endFill=0;fontStyle=0" edge="1" parent="1" target="NuSbpTB-OPI-FNcF1d1R-205">
          <mxGeometry relative="1" as="geometry">
            <mxPoint x="1361.5294117647059" y="893" as="sourcePoint" />
            <mxPoint x="1469.6280991735537" y="1021.9504132231405" as="targetPoint" />
          </mxGeometry>
        </mxCell>
        <mxCell id="NuSbpTB-OPI-FNcF1d1R-210" value="172.16.5.17" style="verticalLabelPosition=bottom;sketch=0;aspect=fixed;html=1;verticalAlign=top;strokeColor=none;align=center;outlineConnect=0;shape=mxgraph.citrix.1u_2u_server;" vertex="1" parent="1">
          <mxGeometry x="1088" y="853" width="100" height="39.1" as="geometry" />
        </mxCell>
        <mxCell id="NuSbpTB-OPI-FNcF1d1R-211" value="172.16.5.16" style="verticalLabelPosition=bottom;sketch=0;aspect=fixed;html=1;verticalAlign=top;strokeColor=none;align=center;outlineConnect=0;shape=mxgraph.citrix.1u_2u_server;" vertex="1" parent="1">
          <mxGeometry x="1198" y="853" width="100" height="39.1" as="geometry" />
        </mxCell>
        <mxCell id="NuSbpTB-OPI-FNcF1d1R-212" value="172.16.5.17" style="verticalLabelPosition=bottom;sketch=0;aspect=fixed;html=1;verticalAlign=top;strokeColor=none;align=center;outlineConnect=0;shape=mxgraph.citrix.1u_2u_server;" vertex="1" parent="1">
          <mxGeometry x="1308" y="853" width="100" height="39.1" as="geometry" />
        </mxCell>
        <mxCell id="NuSbpTB-OPI-FNcF1d1R-213" value="Umbogo&amp;nbsp;&lt;div&gt;172.17.1.222&lt;/div&gt;&lt;div&gt;172.16.5.222&lt;/div&gt;&lt;div&gt;&lt;br&gt;&lt;/div&gt;" style="verticalLabelPosition=bottom;sketch=0;aspect=fixed;html=1;verticalAlign=top;strokeColor=none;align=center;outlineConnect=0;shape=mxgraph.citrix.branch_repeater;" vertex="1" parent="1">
          <mxGeometry x="1220" y="1033" width="100" height="39" as="geometry" />
        </mxCell>
        <mxCell id="NuSbpTB-OPI-FNcF1d1R-214" value="" style="edgeStyle=elbowEdgeStyle;strokeWidth=2;rounded=0;endArrow=none;startArrow=none;startSize=10;endSize=10;dashed=0;html=1;strokeColor=#23445D;fontSize=18;fontColor=#F08705;startFill=0;endFill=0;fontStyle=0;exitX=0;exitY=1;exitDx=190;exitDy=0;exitPerimeter=0;" edge="1" parent="1" source="NuSbpTB-OPI-FNcF1d1R-205" target="NuSbpTB-OPI-FNcF1d1R-213">
          <mxGeometry relative="1" as="geometry">
            <mxPoint x="1371.5294117647059" y="903" as="sourcePoint" />
            <mxPoint x="1372" y="974" as="targetPoint" />
          </mxGeometry>
        </mxCell>
        <mxCell id="NuSbpTB-OPI-FNcF1d1R-215" value="" style="edgeStyle=elbowEdgeStyle;strokeWidth=2;rounded=0;endArrow=none;startArrow=none;startSize=10;endSize=10;dashed=0;html=1;strokeColor=#23445D;fontSize=18;fontColor=#F08705;startFill=0;endFill=0;fontStyle=0;" edge="1" parent="1" source="NuSbpTB-OPI-FNcF1d1R-213" target="NuSbpTB-OPI-FNcF1d1R-206">
          <mxGeometry relative="1" as="geometry">
            <mxPoint x="1278" y="994" as="sourcePoint" />
            <mxPoint x="1277" y="1043" as="targetPoint" />
          </mxGeometry>
        </mxCell>
        <mxCell id="NuSbpTB-OPI-FNcF1d1R-216" value="" style="verticalLabelPosition=bottom;sketch=0;aspect=fixed;html=1;verticalAlign=top;strokeColor=none;align=center;outlineConnect=0;shape=mxgraph.citrix.cloud;" vertex="1" parent="1">
          <mxGeometry y="704" width="398.39" height="260" as="geometry" />
        </mxCell>
        <mxCell id="NuSbpTB-OPI-FNcF1d1R-217" value="Umbogo Cloud&lt;div&gt;&lt;br&gt;&lt;/div&gt;" style="verticalLabelPosition=bottom;sketch=0;aspect=fixed;html=1;verticalAlign=top;strokeColor=none;align=center;outlineConnect=0;shape=mxgraph.citrix.cache_server;" vertex="1" parent="1">
          <mxGeometry x="131.5" y="769" width="71" height="97.5" as="geometry" />
        </mxCell>
        <mxCell id="NuSbpTB-OPI-FNcF1d1R-218" value="Umbogo SWan Server" style="verticalLabelPosition=bottom;sketch=0;aspect=fixed;html=1;verticalAlign=top;strokeColor=none;align=center;outlineConnect=0;shape=mxgraph.citrix.directory_server;" vertex="1" parent="1">
          <mxGeometry x="256" y="774" width="65" height="88.5" as="geometry" />
        </mxCell>
        <mxCell id="NuSbpTB-OPI-FNcF1d1R-219" style="edgeStyle=none;rounded=0;html=1;startArrow=none;startFill=0;endArrow=none;endFill=0;fontSize=18;fontColor=#F08705;strokeColor=#23445D;strokeWidth=2;fontStyle=0;" edge="1" parent="1" source="75" target="19">
          <mxGeometry relative="1" as="geometry">
            <mxPoint x="988" y="547" as="sourcePoint" />
            <mxPoint x="1040" y="666" as="targetPoint" />
          </mxGeometry>
        </mxCell>
        <mxCell id="NuSbpTB-OPI-FNcF1d1R-220" style="edgeStyle=none;rounded=0;html=1;startArrow=none;startFill=0;endArrow=none;endFill=0;fontSize=18;fontColor=#F08705;strokeColor=#23445D;strokeWidth=2;fontStyle=0;" edge="1" parent="1" source="NuSbpTB-OPI-FNcF1d1R-206" target="19">
          <mxGeometry relative="1" as="geometry">
            <mxPoint x="998" y="557" as="sourcePoint" />
            <mxPoint x="1050" y="676" as="targetPoint" />
          </mxGeometry>
        </mxCell>
        <mxCell id="NuSbpTB-OPI-FNcF1d1R-221" style="edgeStyle=orthogonalEdgeStyle;rounded=0;jumpStyle=none;html=1;shadow=0;labelBackgroundColor=#ffffff;startArrow=none;startFill=0;endArrow=none;endFill=0;endSize=10;jettySize=auto;orthogonalLoop=1;strokeColor=#2F5B7C;strokeWidth=2;fillColor=#F08705;fontFamily=Helvetica;fontSize=14;fontColor=#F08705;align=left;curved=1;entryX=0.452;entryY=0.215;entryDx=0;entryDy=0;entryPerimeter=0;" edge="1" parent="1" source="19" target="NuSbpTB-OPI-FNcF1d1R-216">
          <mxGeometry relative="1" as="geometry">
            <mxPoint x="807" y="547" as="sourcePoint" />
            <mxPoint x="610" y="507" as="targetPoint" />
            <Array as="points">
              <mxPoint x="470" y="680" />
              <mxPoint x="470" y="710" />
              <mxPoint x="180" y="710" />
            </Array>
          </mxGeometry>
        </mxCell>
      </root>
    </mxGraphModel>
  </diagram>
</mxfile>
